



___________________________________________________________________________________


                I Always Want To Be The First, Not To Be The Best !                     

___________________________________________________________________________________





Upcoming Movies :




Khokababu (2012) - Original Print

Biti Las Kata Ghar (1944)

Biti Is A Morgue (1952)

Bando Ar Shiner Biye Bholebabar Janmo Dine (1955)

Chatrak (2011) - Original DVD RIP

Gupi Gayen Bagha Bayen (1968) - Bluray RIP




Screens :



 
http://www.shotpix.com/images/51726142552246455931.jpeg

 
http://www.shotpix.com/images/57931363584470838599.jpg




Extra Screens :



 
http://www.shotpix.com/images/08186080128707603030.jpg
 
http://www.shotpix.com/images/56388412517158858141.jpg
 
http://www.shotpix.com/images/72202526061378836125.jpg
 
http://www.shotpix.com/images/40563126451367788837.jpg




Media Info :




Format                           : AVI
Format/Info                      : Audio Video Interleave
File size                        : 699 MiB
Duration                         : 1h 38mn
Overall bit rate                 : 996 Kbps


Video
ID                               : 0
Format                           : MPEG-4 Visual
Format settings, GMC             : No warppoints
Format settings, Matrix          : Custom
Codec ID                         : XVID
Codec ID/Hint                    : XviD
Duration                         : 1h 38mn
Bit rate                         : 869 Kbps
Width                            : 720 pixels
Height                           : 320 pixels
Display aspect ratio             : 2.25:1
Frame rate                       : 29.970 fps
Color space                      : YUV
Chroma subsampling               : 4:2:0
Bit depth                        : 8 bits
Scan type                        : Progressive
Compression mode                 : Lossy
Bits/(Pixel*Frame)               : 0.126
Stream size                      : 610 MiB (87%)

Audio
ID                               : 1
Format                           : MPEG Audio
Format version                   : Version 1
Format profile                   : Layer 3
Mode                             : Joint stereo
Mode extension                   : MS Stereo
Codec ID                         : 55
Codec ID/Hint                    : MP3
Duration                         : 1h 38mn
Bit rate mode                    : Variable
Bit rate                         : 113 Kbps
Nominal bit rate                 : 128 Kbps
Channel(s)                       : 2 channels
Sampling rate                    : 48.0 KHz
Compression mode                 : Lossy
Stream size                      : 79.4 MiB (11%)
Alignment                        : Aligned on interleaves
Interleave, duration             : 24 ms (0.72 video frame)




___________________________________________________________________________________


                   I Do Not Have Enough Time, I Do Not Have !
___________________________________________________________________________________





